# xmcd CD database file
#
# Track frame offsets:
#	150
#	28619
#	46434
#	64961
#	75321
#	85786
#	120351
#	137382
#	163480
#	181747
#	201363
#	223872
#
# Disc length: 3074 seconds
#
# Revision: 0
# Processed by: cddbd v1.5.1PL0 Copyright (c) Steve Scherf et al.
# Submitted via: CDex 1.51
#
DISCID=a10c000c
DTITLE=Leo Bernstein - Tracción a Sangre
DYEAR=2005
DGENRE=Jazz
TTITLE0=Buenos Aires
TTITLE1=Bernardina
TTITLE2=Hechizo en la ciudad
TTITLE3=Mundo Nuevo
TTITLE4=Cómo te explico
TTITLE5=Buscándote
TTITLE6=Marcela
TTITLE7=Después de hora
TTITLE8=Amaneca
TTITLE9=La costa negra
TTITLE10=Tracción a sangre
TTITLE11=Final 
EXTD=YEAR: 2005
EXTT0=
EXTT1=
EXTT2=
EXTT3=
EXTT4=
EXTT5=
EXTT6=
EXTT7=
EXTT8=
EXTT9=
EXTT10=
EXTT11=
PLAYORDER=
